HIERARCHY
ROOT Hips
{
	OFFSET -0.001795 -0.223333 0.028219
	CHANNELS 6 Xposition Yposition Zposition Zrotation Yrotation Xrotation 
	JOINT LeftUpLeg
	{
		OFFSET 0.069520 -0.091406 -0.006815
		CHANNELS 3 Zrotation Yrotation Xrotation
		JOINT LeftLeg
		{
			OFFSET 0.034277 -0.375199 -0.004496
			CHANNELS 3 Zrotation Yrotation Xrotation
			JOINT LeftFoot
			{
				OFFSET -0.013596 -0.397961 -0.043693
				CHANNELS 3 Zrotation Yrotation Xrotation
				JOINT LeftToe
				{
					OFFSET 0.026358 -0.055791 0.119288
					CHANNELS 3 Zrotation Yrotation Xrotation
					End Site
					{
						OFFSET 0.000000 0.000000 0.000000
					}
				}
			}
		}
	}
	JOINT RightUpLeg
	{
		OFFSET -0.067670 -0.090522 -0.004320
		CHANNELS 3 Zrotation Yrotation Xrotation
		JOINT RightLeg
		{
			OFFSET -0.038290 -0.382569 -0.008850
			CHANNELS 3 Zrotation Yrotation Xrotation
			JOINT RightFoot
			{
				OFFSET 0.015774 -0.398415 -0.042312
				CHANNELS 3 Zrotation Yrotation Xrotation
				JOINT RightToe
				{
					OFFSET -0.025372 -0.048144 0.123348
					CHANNELS 3 Zrotation Yrotation Xrotation
					End Site
					{
						OFFSET 0.000000 0.000000 0.000000
					}
				}
			}
		}
	}
	JOINT Spine
	{
		OFFSET -0.002533 0.108963 -0.026696
		CHANNELS 3 Zrotation Yrotation Xrotation
		JOINT Spine1
		{
			OFFSET 0.005487 0.135180 0.001092
			CHANNELS 3 Zrotation Yrotation Xrotation
			JOINT Spine2
			{
				OFFSET 0.001457 0.052922 0.025425
				CHANNELS 3 Zrotation Yrotation Xrotation
				JOINT Neck
				{
					OFFSET -0.002778 0.213870 -0.042857
					CHANNELS 3 Zrotation Yrotation Xrotation
					JOINT Head
					{
						OFFSET 0.005152 0.064970 0.051349
						CHANNELS 3 Zrotation Yrotation Xrotation
						End Site
						{
							OFFSET 0.000000 0.000000 0.000000
						}
					}
				}
				JOINT LeftShoulder
				{
					OFFSET 0.078845 0.121749 -0.034090
					CHANNELS 3 Zrotation Yrotation Xrotation
					JOINT LeftArm
					{
						OFFSET 0.090977 0.030469 -0.008868
						CHANNELS 3 Zrotation Yrotation Xrotation
						JOINT LeftForeArm
						{
							OFFSET 0.259612 -0.012772 -0.027456
							CHANNELS 3 Zrotation Yrotation Xrotation
							JOINT LeftHand
							{
								OFFSET 0.249234 0.008986 -0.001171
								CHANNELS 3 Zrotation Yrotation Xrotation
								End Site
								{
									OFFSET 0.000000 0.000000 0.000000
								}
							}
						}
					}
				}
				JOINT RightShoulder
				{
					OFFSET -0.081759 0.118833 -0.038615
					CHANNELS 3 Zrotation Yrotation Xrotation
					JOINT RightArm
					{
						OFFSET -0.096012 0.032551 -0.009143
						CHANNELS 3 Zrotation Yrotation Xrotation
						JOINT RightForeArm
						{
							OFFSET -0.253742 -0.013329 -0.021401
							CHANNELS 3 Zrotation Yrotation Xrotation
							JOINT RightHand
							{
								OFFSET -0.255298 0.007772 -0.005559
								CHANNELS 3 Zrotation Yrotation Xrotation
								End Site
								{
									OFFSET 0.000000 0.000000 0.000000
								}
							}
						}
					}
				}
			}
		}
	}
}
MOTION
Frames: 7
Frame Time: 0.050000
0.000367 0.906933 -0.036092 0.143745 -12.901827 4.477651 3.837794 -0.676575 -25.921311 -1.472529 0.588562 23.219053 8.590339 17.626574 1.769823 0.000000 0.000000 0.000000 -1.079728 2.847125 -24.186155 3.596536 0.707819 23.195639 -10.584351 -25.198067 2.404888 0.000000 0.000000 0.000000 -4.025001 1.280338 32.912971 6.641909 -1.757813 -17.559259 1.621195 2.849997 28.272227 1.903183 0.454490 -34.002487 0.000000 0.000000 0.000000 -40.464318 -11.024286 8.284387 -61.793296 -17.517425 -1.387193 21.680037 -50.803188 -5.328410 0.000000 0.000000 0.000000 32.301920 21.188149 10.865949 55.575602 9.142904 -2.968607 -28.082532 52.041399 -10.761386 0.000000 0.000000 0.000000 
0.011009 0.905653 -0.036789 0.074745 -13.737870 4.847016 3.801965 -0.620168 -26.272137 -2.137555 0.901579 23.540291 8.897879 18.314062 0.640057 0.000000 0.000000 0.000000 -2.276653 3.009425 -26.302817 3.867743 0.838595 25.383443 -10.897133 -25.971152 3.317254 0.000000 0.000000 0.000000 -4.361729 1.546924 33.613365 6.712834 -1.845041 -16.904561 1.952370 2.431932 28.243659 1.758779 0.287488 -32.357943 0.000000 0.000000 0.000000 -39.014759 -11.540906 9.017541 -62.530894 -20.449972 0.203045 23.381720 -49.742039 -5.766323 0.000000 0.000000 0.000000 32.269999 22.404521 11.395825 56.377471 10.155966 -2.406052 -31.256159 52.342853 -12.468147 0.000000 0.000000 0.000000 
0.020809 0.903792 -0.038454 0.224053 -14.080532 5.532497 3.540865 -0.650749 -27.171172 -2.864930 1.160566 23.223955 9.217366 18.922907 0.743625 0.000000 0.000000 0.000000 -3.730220 3.067412 -28.311502 4.485600 0.824889 27.574228 -10.835669 -26.014641 4.184121 0.000000 0.000000 0.000000 -4.426187 1.675617 34.250355 7.244469 -2.047510 -16.251686 1.866258 2.412824 27.778949 1.539418 0.342209 -31.495009 0.000000 0.000000 0.000000 -38.437723 -12.896400 10.077739 -62.145694 -22.690355 1.496442 24.428076 -48.581657 -6.121621 0.000000 0.000000 0.000000 32.081824 23.088109 11.830148 57.752401 11.517599 -1.704009 -35.058225 52.762232 -14.450539 0.000000 0.000000 0.000000 
0.029774 0.900288 -0.041431 0.103754 -14.935602 6.156191 3.433521 -0.581127 -28.722616 -3.369047 1.495229 24.579815 9.978562 20.506259 -0.125581 0.000000 0.000000 0.000000 -5.219235 3.225635 -30.965988 5.507519 0.762497 30.578763 -10.780168 -26.120490 4.927605 0.000000 0.000000 0.000000 -4.338209 1.853134 35.344301 7.324406 -2.128241 -15.661830 2.462495 2.479610 27.255001 1.434272 0.281979 -30.101278 0.000000 0.000000 0.000000 -37.783977 -14.056298 11.013459 -61.882458 -24.995140 2.824306 25.898121 -47.399871 -6.584492 0.000000 0.000000 0.000000 32.228809 24.647170 12.880377 58.279962 13.593524 -0.565640 -38.915602 52.348846 -16.257511 0.000000 0.000000 0.000000 
0.037516 0.895001 -0.045353 0.060607 -15.484710 7.021901 3.169111 -0.560368 -30.295114 -3.357921 1.592256 25.431734 10.387866 21.436865 -1.023173 0.000000 0.000000 0.000000 -6.917061 3.277589 -33.450436 6.448409 0.602654 32.691853 -11.249318 -27.218706 5.246766 0.000000 0.000000 0.000000 -4.257896 2.033830 36.628175 8.295689 -2.488491 -14.751765 2.477390 3.209417 26.144299 1.037909 0.580966 -29.421121 0.000000 0.000000 0.000000 -37.931206 -15.551410 11.820470 -60.842554 -26.654993 3.841628 27.933740 -46.407850 -7.488524 0.000000 0.000000 0.000000 32.463451 26.168473 14.322301 58.219201 15.872924 0.645575 -41.668125 51.089350 -17.044039 0.000000 0.000000 0.000000 
0.043232 0.887919 -0.050177 0.166528 -15.756777 7.867645 2.928369 -0.518728 -32.802718 -3.572212 1.888005 27.913882 10.858783 22.553270 -2.361892 0.000000 0.000000 0.000000 -8.288169 3.359083 -36.056884 6.918487 0.533502 34.498807 -11.479038 -27.937336 4.025143 0.000000 0.000000 0.000000 -3.728312 2.021396 38.034960 8.887122 -2.655019 -14.715988 2.789043 3.697129 25.944008 1.011911 0.654482 -29.030573 0.000000 0.000000 0.000000 -37.205575 -16.712469 12.374597 -60.792256 -28.470678 4.991256 28.475419 -45.875841 -7.697331 0.000000 0.000000 0.000000 32.582360 27.534781 15.600514 57.635316 18.330667 1.829201 -43.278428 49.040724 -16.874812 0.000000 0.000000 0.000000 
0.045804 0.881195 -0.055259 0.462818 -15.692235 8.374744 2.576617 -0.575256 -34.447034 -3.099184 1.784091 29.279668 11.370018 23.625778 -2.749795 0.000000 0.000000 0.000000 -9.865096 3.223258 -38.012760 7.026267 0.471732 35.149473 -11.972283 -29.068812 3.809367 0.000000 0.000000 0.000000 -3.018977 1.936174 40.006659 9.581558 -2.852151 -14.695121 2.950759 4.629432 25.607535 1.090123 0.784782 -28.597046 0.000000 0.000000 0.000000 -36.065793 -18.066454 12.596922 -61.543194 -29.617398 6.083255 30.070142 -45.707550 -8.515860 0.000000 0.000000 0.000000 32.162193 28.380050 16.659300 56.726103 21.468290 3.221515 -43.690829 45.658037 -15.485936 0.000000 0.000000 0.000000 
